<svg xmlns="http://www.w3.org/2000/svg" width="800" height="500" viewBox="0 0 800 500" role="img" aria-label="Electronic Project Management System">
  <defs>
    <linearGradient id="epmsBg" x1="0" y1="0" x2="1" y2="1">
      <stop offset="0%" stop-color="#1e3a8a"/>
      <stop offset="100%" stop-color="#0ea5e9"/>
    </linearGradient>
  </defs>
  <rect width="800" height="500" fill="url(#epmsBg)"/>
  <rect x="48" y="36" width="704" height="72" rx="16" fill="rgba(15,23,42,0.45)"/>
  <text x="400" y="84" text-anchor="middle" fill="#f8fafc" font-family="Segoe UI, sans-serif" font-size="36" font-weight="700">EPMS</text>
  <rect x="48" y="132" width="220" height="280" rx="20" fill="#1d4ed8"/>
  <rect x="290" y="132" width="220" height="280" rx="20" fill="#2563eb"/>
  <rect x="532" y="132" width="220" height="280" rx="20" fill="#7dd3fc"/>
  <rect x="78" y="168" width="160" height="16" rx="8" fill="rgba(255,255,255,0.85)"/>
  <rect x="78" y="204" width="120" height="12" rx="6" fill="rgba(255,255,255,0.45)"/>
  <rect x="78" y="232" width="140" height="12" rx="6" fill="rgba(255,255,255,0.35)"/>
  <rect x="320" y="168" width="160" height="16" rx="8" fill="rgba(255,255,255,0.85)"/>
  <rect x="320" y="204" width="120" height="12" rx="6" fill="rgba(255,255,255,0.45)"/>
  <rect x="562" y="168" width="160" height="16" rx="8" fill="rgba(255,255,255,0.7)"/>
  <text x="400" y="460" text-anchor="middle" fill="#e2e8f0" font-family="Segoe UI, sans-serif" font-size="22" font-weight="600">RBAC · Workflows · Dashboards</text>
</svg>
